<svg width="32" height="32" viewBox="0 0 32 32" fill="none" xmlns="http://www.w3.org/2000/svg">
<path d="M9.84615 16.0005V11.9545C9.85817 11.1592 10.027 10.3741 10.343 9.64418C10.659 8.91424 11.1159 8.25383 11.6875 7.70077C12.2592 7.14771 12.9344 6.71288 13.6744 6.4212C14.4144 6.12952 15.2047 5.98671 16 6.00097C16.7953 5.98671 17.5856 6.12952 18.3256 6.4212C19.0656 6.71288 19.7408 7.14771 20.3125 7.70077C20.8841 8.25383 21.341 8.91424 21.657 9.64418C21.973 10.3741 22.1418 11.1592 22.1538 11.9545V16.0005M19.0769 24.077C19.893 24.077 20.6756 23.7529 21.2526 23.1758C21.8297 22.5988 22.1538 21.8163 22.1538 21.0002V17.5389M19.0769 24.077C19.0769 24.587 18.8743 25.0761 18.5137 25.4368C18.153 25.7974 17.6639 26 17.1538 26H14.8462C14.3361 26 13.847 25.7974 13.4863 25.4368C13.1257 25.0761 12.9231 24.587 12.9231 24.077C12.9231 23.567 13.1257 23.0779 13.4863 22.7173C13.847 22.3566 14.3361 22.154 14.8462 22.154H17.1538C17.6639 22.154 18.153 22.3566 18.5137 22.7173C18.8743 23.0779 19.0769 23.567 19.0769 24.077ZM7.53846 13.6929H9.07692C9.28094 13.6929 9.47659 13.7739 9.62085 13.9182C9.76511 14.0624 9.84615 14.2581 9.84615 14.4621V19.0773C9.84615 19.2813 9.76511 19.4769 9.62085 19.6212C9.47659 19.7654 9.28094 19.8465 9.07692 19.8465H7.53846C7.13044 19.8465 6.73912 19.6844 6.4506 19.3959C6.16209 19.1074 6 18.7161 6 18.3081V15.2313C6 14.8233 6.16209 14.432 6.4506 14.1435C6.73912 13.855 7.13044 13.6929 7.53846 13.6929ZM24.4615 19.8465H22.9231C22.7191 19.8465 22.5234 19.7654 22.3791 19.6212C22.2349 19.4769 22.1538 19.2813 22.1538 19.0773V14.4621C22.1538 14.2581 22.2349 14.0624 22.3791 13.9182C22.5234 13.7739 22.7191 13.6929 22.9231 13.6929H24.4615C24.8696 13.6929 25.2609 13.855 25.5494 14.1435C25.8379 14.432 26 14.8233 26 15.2313V18.3081C26 18.7161 25.8379 19.1074 25.5494 19.3959C25.2609 19.6844 24.8696 19.8465 24.4615 19.8465Z" stroke="#6F7887" stroke-width="2" stroke-linecap="round" stroke-linejoin="round"/>
</svg>
