<svg width="12" height="12" viewBox="0 0 12 12" fill="none" xmlns="http://www.w3.org/2000/svg">
<path d="M8 9.5C7.725 9.5 7.48967 9.40217 7.294 9.2065C7.09833 9.01083 7.00033 8.77533 7 8.5V3.5C7 3.225 7.098 2.98967 7.294 2.794C7.49 2.59833 7.72533 2.50033 8 2.5C8.27467 2.49967 8.51017 2.59767 8.7065 2.794C8.90283 2.99033 9.00067 3.22567 9 3.5V8.5C9 8.775 8.90217 9.0105 8.7065 9.2065C8.51083 9.4025 8.27533 9.50033 8 9.5ZM4 9.5C3.725 9.5 3.48967 9.40217 3.294 9.2065C3.09833 9.01083 3.00033 8.77533 3 8.5V3.5C3 3.225 3.098 2.98967 3.294 2.794C3.49 2.59833 3.72533 2.50033 4 2.5C4.27467 2.49967 4.51017 2.59767 4.7065 2.794C4.90283 2.99033 5.00067 3.22567 5 3.5V8.5C5 8.775 4.90217 9.0105 4.7065 9.2065C4.51083 9.4025 4.27533 9.50033 4 9.5Z" fill="white"/>
</svg>
