<svg width="12" height="12" viewBox="0 0 12 12" fill="none" xmlns="http://www.w3.org/2000/svg">
<path fill-rule="evenodd" clip-rule="evenodd" d="M2.83472 2.38013C2.84822 2.2666 2.88802 2.15778 2.95096 2.06233C3.0139 1.96688 3.09823 1.88743 3.19726 1.8303C3.29629 1.77316 3.40728 1.73992 3.52142 1.7332C3.63555 1.72649 3.74967 1.74649 3.85472 1.79163C4.38572 2.01863 5.57572 2.55813 7.08572 3.42963C8.59622 4.30163 9.65872 5.06313 10.1202 5.40863C10.5142 5.70413 10.5152 6.29013 10.1207 6.58663C9.66372 6.93013 8.61422 7.68163 7.08572 8.56463C5.55572 9.44763 4.37972 9.98063 3.85372 10.2046C3.40072 10.3981 2.89372 10.1046 2.83472 9.61613C2.76572 9.04513 2.63672 7.74863 2.63672 5.99763C2.63672 4.24763 2.76522 2.95163 2.83472 2.38013Z" fill="white"/>
</svg>
