<svg width="16" height="16" viewBox="0 0 16 16" fill="none" xmlns="http://www.w3.org/2000/svg">
<path d="M7.99967 1.33398C11.6817 1.33398 14.6663 4.31865 14.6663 8.00065C14.6663 11.6827 11.6817 14.6673 7.99967 14.6673C4.31767 14.6673 1.33301 11.6827 1.33301 8.00065C1.33301 4.31865 4.31767 1.33398 7.99967 1.33398ZM6.58567 5.64332C6.46598 5.52248 6.30463 5.45196 6.13464 5.4462C5.96466 5.44043 5.7989 5.49985 5.67129 5.61229C5.54368 5.72474 5.46387 5.88171 5.44821 6.05107C5.43254 6.22043 5.48219 6.38937 5.58701 6.52332L5.64301 6.58665L7.05634 7.99998L5.64301 9.41465C5.52217 9.53435 5.45165 9.6957 5.44589 9.86568C5.44012 10.0357 5.49954 10.2014 5.61199 10.329C5.72443 10.4566 5.8814 10.5365 6.05076 10.5521C6.22012 10.5678 6.38906 10.5181 6.52301 10.4133L6.58567 10.358L7.99967 8.94332L9.41368 10.358C9.53337 10.4788 9.69472 10.5493 9.86471 10.5551C10.0347 10.5609 10.2005 10.5015 10.3281 10.389C10.4557 10.2766 10.5355 10.1196 10.5511 9.95024C10.5668 9.78088 10.5172 9.61193 10.4123 9.47798L10.357 9.41465L8.94234 8.00065L10.357 6.58665C10.4778 6.46696 10.5484 6.3056 10.5541 6.13562C10.5599 5.96563 10.5005 5.79987 10.388 5.67226C10.2756 5.54466 10.1186 5.46485 9.94926 5.44918C9.7799 5.43351 9.61096 5.48317 9.47701 5.58798L9.41368 5.64332L7.99967 7.05798L6.58567 5.64332Z" fill="#58657F"/>
</svg>
