<svg width="32" height="32" viewBox="0 0 32 32" fill="none" xmlns="http://www.w3.org/2000/svg">
<g clip-path="url(#clip0_213_2754)">
<g opacity="0.9" filter="url(#filter0_dd_213_2754)">
<path fill-rule="evenodd" clip-rule="evenodd" d="M7.55827 6.34692C7.59428 6.04417 7.70042 5.754 7.86825 5.49947C8.03608 5.24494 8.26097 5.03308 8.52505 4.88071C8.78913 4.72835 9.08511 4.63969 9.38947 4.62179C9.69382 4.60389 9.99815 4.65723 10.2783 4.77759C11.6943 5.38292 14.8676 6.82159 18.8943 9.14559C22.9223 11.4709 25.7556 13.5016 26.9863 14.4229C28.0369 15.2109 28.0396 16.7736 26.9876 17.5643C25.7689 18.4803 22.9703 20.4843 18.8943 22.8389C14.8143 25.1936 11.6783 26.6149 10.2756 27.2123C9.06761 27.7283 7.71561 26.9456 7.55827 25.6429C7.37427 24.1203 7.03027 20.6629 7.03027 15.9936C7.03027 11.3269 7.37294 7.87092 7.55827 6.34692Z" fill="white"/>
</g>
</g>
<defs>
<filter id="filter0_dd_213_2754" x="0.173131" y="-2.23873" width="34.4594" height="36.4687" filterUnits="userSpaceOnUse" color-interpolation-filters="sRGB">
<feFlood flood-opacity="0" result="BackgroundImageFix"/>
<feColorMatrix in="SourceAlpha" type="matrix" values="0 0 0 0 0 0 0 0 0 0 0 0 0 0 0 0 0 0 127 0" result="hardAlpha"/>
<feOffset/>
<feGaussianBlur stdDeviation="3.42857"/>
<feComposite in2="hardAlpha" operator="out"/>
<feColorMatrix type="matrix" values="0 0 0 0 0 0 0 0 0 0 0 0 0 0 0 0 0 0 0.12 0"/>
<feBlend mode="normal" in2="BackgroundImageFix" result="effect1_dropShadow_213_2754"/>
<feColorMatrix in="SourceAlpha" type="matrix" values="0 0 0 0 0 0 0 0 0 0 0 0 0 0 0 0 0 0 127 0" result="hardAlpha"/>
<feOffset/>
<feGaussianBlur stdDeviation="1.71429"/>
<feComposite in2="hardAlpha" operator="out"/>
<feColorMatrix type="matrix" values="0 0 0 0 0 0 0 0 0 0 0 0 0 0 0 0 0 0 0.2 0"/>
<feBlend mode="normal" in2="effect1_dropShadow_213_2754" result="effect2_dropShadow_213_2754"/>
<feBlend mode="normal" in="SourceGraphic" in2="effect2_dropShadow_213_2754" result="shape"/>
</filter>
<clipPath id="clip0_213_2754">
<rect width="32" height="32" fill="white"/>
</clipPath>
</defs>
</svg>
